<svg version="1.1" id="Layer_1" xmlns="http://www.w3.org/2000/svg" xmlns:xlink="http://www.w3.org/1999/xlink" x="0px" y="0px"
	 width="100%" viewBox="0 0 2000 1500" enable-background="new 0 0 2000 1500" xml:space="preserve">
<path fill="#1D366F" opacity="1.000000" stroke="none" 
	d="
M1368.000000,1501.000000 
	C912.000122,1501.000000 456.500275,1501.000000 1.000305,1501.000000 
	C1.000204,1001.000305 1.000204,501.000580 1.000102,1.000641 
	C667.666199,1.000427 1334.332397,1.000427 2000.998901,1.000214 
	C2000.999268,500.999359 2000.999268,1000.998718 2000.999634,1500.999023 
	C1790.166626,1501.000000 1579.333374,1501.000000 1368.000000,1501.000000 
M1288.095581,780.453308 
	C1284.496460,771.721802 1281.893677,762.399170 1277.124634,754.361816 
	C1257.152100,720.700806 1228.073608,699.725525 1188.328857,698.202026 
	C1150.899536,696.767395 1113.367554,698.056396 1075.880737,698.018982 
	C1071.275757,698.014343 1071.924805,700.908936 1071.916748,703.714294 
	C1071.554443,830.348450 1071.213989,956.982727 1070.741699,1083.616455 
	C1070.723999,1088.369751 1072.001465,1089.935425 1076.913696,1089.860352 
	C1103.732910,1089.450562 1130.562744,1089.635742 1157.377319,1089.069824 
	C1171.149658,1088.779175 1185.230103,1088.944946 1198.599243,1086.159424 
	C1254.137817,1074.587524 1291.677979,1027.329224 1291.864868,969.867188 
	C1292.037231,916.881104 1292.085449,863.892761 1291.738892,810.908447 
	C1291.674194,801.016846 1289.482788,791.139221 1288.095581,780.453308 
M756.464417,863.937195 
	C747.233398,810.480835 737.963684,757.031128 728.843201,703.555908 
	C728.097900,699.185730 726.188110,697.947815 721.876953,697.981506 
	C697.380859,698.173340 672.882385,698.073486 648.384766,698.075012 
	C641.251221,698.075439 641.308899,698.089050 640.087830,704.888855 
	C630.295044,759.424438 620.493042,813.958313 610.666138,868.487793 
	C597.740662,940.211243 584.784912,1011.929199 571.859253,1083.652588 
	C570.792236,1089.573608 571.032959,1089.812622 577.213440,1089.817017 
	C593.711853,1089.828979 610.210571,1089.883179 626.708557,1089.802124 
	C640.196106,1089.735840 637.830627,1091.645142 640.029053,1077.937866 
	C641.731873,1067.320557 643.303284,1056.682129 644.908020,1046.216919 
	C670.752258,1046.216919 695.993774,1046.216919 721.473694,1046.216919 
	C723.375854,1059.002686 725.337341,1071.479980 727.034546,1083.993164 
	C727.600159,1088.163574 729.128967,1089.980469 733.709045,1089.921753 
	C752.537415,1089.680298 771.371338,1089.745850 790.201843,1089.880737 
	C794.182068,1089.909302 795.553223,1088.733887 794.829163,1084.635620 
	C788.981445,1051.535034 783.242126,1018.415222 777.504883,985.295227 
	C770.546326,945.124207 763.622009,904.947327 756.464417,863.937195 
M1013.504700,960.927673 
	C1009.576294,938.133545 1005.664734,915.336548 1001.716248,892.545898 
	C990.808411,829.586243 979.860291,766.633423 969.028625,703.660706 
	C968.357544,699.759338 967.064209,697.949524 962.690063,697.982361 
	C937.360840,698.172363 912.029297,698.122620 886.699097,698.020935 
	C883.109802,698.006531 881.401917,698.971680 880.717407,702.844177 
	C874.258240,739.381714 867.578491,775.880310 860.979553,812.393188 
	C851.155090,866.754028 841.349182,921.118225 831.526550,975.479370 
	C825.047241,1011.337341 818.533691,1047.189209 812.082275,1083.052246 
	C810.916992,1089.529907 811.244141,1089.817261 817.887756,1089.819214 
	C836.219116,1089.824707 854.551392,1089.728394 872.881287,1089.891846 
	C877.005249,1089.928589 878.762207,1088.660034 879.327759,1084.386597 
	C881.022278,1071.581665 883.171387,1058.836792 885.130920,1046.147705 
	C910.878845,1046.147705 936.144836,1046.147705 961.649658,1046.147705 
	C963.619263,1059.179565 965.621582,1071.975220 967.446838,1084.795898 
	C967.956970,1088.379272 969.398682,1089.927002 973.262573,1089.894409 
	C992.425842,1089.732178 1011.591797,1089.745483 1030.755371,1089.880859 
	C1034.740234,1089.909058 1035.719116,1088.339111 1034.998779,1084.739014 
	C1034.052246,1080.008423 1033.291016,1075.240356 1032.470215,1070.484863 
	C1026.214966,1034.245728 1019.964783,998.005859 1013.504700,960.927673 
M1048.055786,464.556000 
	C1051.943604,460.670410 1056.287964,457.136963 1059.616699,452.820312 
	C1065.218628,445.555756 1072.055542,443.577972 1081.123047,443.795624 
	C1100.571533,444.262421 1120.203613,444.821014 1139.489258,442.778992 
	C1184.866089,437.974304 1219.206421,392.172058 1212.724854,346.903564 
	C1206.343262,302.333282 1170.304688,271.142670 1125.150269,271.123413 
	C1099.999634,271.112701 1074.848633,271.062256 1049.698486,271.171844 
	C1044.720215,271.193512 1039.677002,271.465210 1034.778809,272.297791 
	C995.073486,279.046539 966.161926,310.231995 962.574341,351.629486 
	C959.314209,389.247375 981.662598,424.269012 1017.433899,438.071625 
	C1020.676147,439.322693 1021.527832,441.022675 1021.473755,444.302887 
	C1021.281738,455.958923 1021.282837,467.622650 1021.527649,479.276794 
	C1021.565857,481.096436 1022.861755,483.823090 1024.287720,484.414520 
	C1025.680908,484.992340 1028.465088,483.887726 1029.806396,482.632507 
	C1035.883545,476.945343 1041.666138,470.943604 1048.055786,464.556000 
M831.188782,332.515442 
	C819.953308,337.776794 815.173828,346.886536 815.180298,358.997192 
	C815.211670,417.663605 815.193909,476.330048 815.193542,534.996460 
	C815.193542,536.901978 815.193604,538.807495 815.193604,541.049683 
	C806.615906,541.049683 798.842285,541.049683 791.036194,541.049683 
	C791.036194,548.710510 790.385437,556.092529 791.174438,563.317383 
	C792.721375,577.482361 805.104858,587.064026 821.009888,587.068359 
	C909.842834,587.092468 998.675842,587.081726 1087.508789,587.078857 
	C1103.841919,587.078308 1120.176636,587.193604 1136.507690,587.007507 
	C1150.235840,586.851135 1161.881958,577.585144 1164.026489,564.047668 
	C1165.222778,556.496216 1164.241577,548.599792 1164.241577,540.302246 
	C1156.483765,540.302246 1148.569214,540.302246 1140.120605,540.302246 
	C1140.120605,515.014648 1140.120605,490.273438 1140.120605,465.964783 
	C1127.818115,465.964783 1116.079590,465.964783 1103.810669,465.964783 
	C1103.810669,491.284668 1103.810669,516.003113 1103.810669,541.152344 
	C1073.013550,541.152344 1042.754395,541.152344 1012.566528,541.152344 
	C1011.263611,549.983826 1008.483582,552.502991 1000.051147,552.537598 
	C985.718140,552.596375 971.384644,552.557251 957.051392,552.555420 
	C946.090942,552.554077 944.645996,551.479004 941.580078,540.806274 
	C911.562500,540.806274 881.445984,540.806274 851.234558,540.806274 
	C851.234558,482.455292 851.234558,424.444489 851.234558,365.924744 
	C881.372620,365.924744 911.090271,365.924744 940.044800,365.924744 
	C941.076599,353.807098 942.059753,342.261047 943.057861,330.539062 
	C942.614380,330.499969 941.641785,330.339691 940.669189,330.339294 
	C908.002686,330.326141 875.335876,330.271057 842.669983,330.409149 
	C839.074280,330.424347 835.483398,331.559448 831.188782,332.515442 
M1336.276978,1027.499878 
	C1336.247681,1046.160522 1336.344116,1064.822632 1336.101807,1083.480591 
	C1336.040649,1088.182861 1337.357544,1089.974609 1342.294922,1089.915405 
	C1361.285767,1089.687134 1380.281982,1089.714233 1399.273560,1089.904297 
	C1403.617065,1089.947632 1405.033081,1088.620728 1405.021973,1084.205444 
	C1404.702393,957.249207 1404.480591,830.292603 1404.357300,703.335999 
	C1404.353271,699.136902 1403.054321,697.947632 1398.939087,697.989990 
	C1380.447266,698.180603 1361.952515,698.071167 1343.458740,698.074280 
	C1336.910400,698.075378 1336.908325,698.080933 1336.895874,704.609985 
	C1336.689697,811.906555 1336.484131,919.203186 1336.276978,1027.499878 
z"/>
<path fill="#FEFEFE" opacity="1.000000" stroke="none" 
	d="
M1288.184326,780.854248 
	C1289.482788,791.139221 1291.674194,801.016846 1291.738892,810.908447 
	C1292.085449,863.892761 1292.037231,916.881104 1291.864868,969.867188 
	C1291.677979,1027.329224 1254.137817,1074.587524 1198.599243,1086.159424 
	C1185.230103,1088.944946 1171.149658,1088.779175 1157.377319,1089.069824 
	C1130.562744,1089.635742 1103.732910,1089.450562 1076.913696,1089.860352 
	C1072.001465,1089.935425 1070.723999,1088.369751 1070.741699,1083.616455 
	C1071.213989,956.982727 1071.554443,830.348450 1071.916748,703.714294 
	C1071.924805,700.908936 1071.275757,698.014343 1075.880737,698.018982 
	C1113.367554,698.056396 1150.899536,696.767395 1188.328857,698.202026 
	C1228.073608,699.725525 1257.152100,720.700806 1277.124634,754.361816 
	C1281.893677,762.399170 1284.496460,771.721802 1288.184326,780.854248 
M1223.844849,919.500061 
	C1223.844360,883.178589 1223.906738,846.856995 1223.819702,810.535706 
	C1223.767578,788.737244 1209.177246,768.622498 1189.388916,766.378296 
	C1173.211060,764.543518 1156.659424,766.004822 1139.796265,766.004822 
	C1139.796265,850.896179 1139.796265,935.452637 1139.796265,1020.566895 
	C1144.841187,1020.566895 1149.800537,1020.670898 1154.753906,1020.544861 
	C1164.567993,1020.295044 1174.578125,1021.051697 1184.151489,1019.369141 
	C1207.486206,1015.268311 1223.509888,994.989075 1223.801514,970.483093 
	C1223.999756,953.824280 1223.842896,937.161255 1223.844849,919.500061 
z"/>
<path fill="#FEFEFE" opacity="1.000000" stroke="none" 
	d="
M756.573608,864.355103 
	C763.622009,904.947327 770.546326,945.124207 777.504883,985.295227 
	C783.242126,1018.415222 788.981445,1051.535034 794.829163,1084.635620 
	C795.553223,1088.733887 794.182068,1089.909302 790.201843,1089.880737 
	C771.371338,1089.745850 752.537415,1089.680298 733.709045,1089.921753 
	C729.128967,1089.980469 727.600159,1088.163574 727.034546,1083.993164 
	C725.337341,1071.479980 723.375854,1059.002686 721.473694,1046.216919 
	C695.993774,1046.216919 670.752258,1046.216919 644.908020,1046.216919 
	C643.303284,1056.682129 641.731873,1067.320557 640.029053,1077.937866 
	C637.830627,1091.645142 640.196106,1089.735840 626.708557,1089.802124 
	C610.210571,1089.883179 593.711853,1089.828979 577.213440,1089.817017 
	C571.032959,1089.812622 570.792236,1089.573608 571.859253,1083.652588 
	C584.784912,1011.929199 597.740662,940.211243 610.666138,868.487793 
	C620.493042,813.958313 630.295044,759.424438 640.087830,704.888855 
	C641.308899,698.089050 641.251221,698.075439 648.384766,698.075012 
	C672.882385,698.073486 697.380859,698.173340 721.876953,697.981506 
	C726.188110,697.947815 728.097900,699.185730 728.843201,703.555908 
	C737.963684,757.031128 747.233398,810.480835 756.573608,864.355103 
M692.023743,861.388672 
	C689.463135,844.192505 686.902588,826.996338 684.239746,809.113403 
	C674.835083,868.405457 665.575684,926.781189 656.267029,985.468140 
	C674.300537,985.468140 692.012817,985.468140 710.152832,985.468140 
	C704.103516,944.172974 698.104492,903.221313 692.023743,861.388672 
z"/>
<path fill="#FEFEFE" opacity="1.000000" stroke="none" 
	d="
M1013.608887,961.346924 
	C1019.964783,998.005859 1026.214966,1034.245728 1032.470215,1070.484863 
	C1033.291016,1075.240356 1034.052246,1080.008423 1034.998779,1084.739014 
	C1035.719116,1088.339111 1034.740234,1089.909058 1030.755371,1089.880859 
	C1011.591797,1089.745483 992.425842,1089.732178 973.262573,1089.894409 
	C969.398682,1089.927002 967.956970,1088.379272 967.446838,1084.795898 
	C965.621582,1071.975220 963.619263,1059.179565 961.649658,1046.147705 
	C936.144836,1046.147705 910.878845,1046.147705 885.130920,1046.147705 
	C883.171387,1058.836792 881.022278,1071.581665 879.327759,1084.386597 
	C878.762207,1088.660034 877.005249,1089.928589 872.881287,1089.891846 
	C854.551392,1089.728394 836.219116,1089.824707 817.887756,1089.819214 
	C811.244141,1089.817261 810.916992,1089.529907 812.082275,1083.052246 
	C818.533691,1047.189209 825.047241,1011.337341 831.526550,975.479370 
	C841.349182,921.118225 851.155090,866.754028 860.979553,812.393188 
	C867.578491,775.880310 874.258240,739.381714 880.717407,702.844177 
	C881.401917,698.971680 883.109802,698.006531 886.699097,698.020935 
	C912.029297,698.122620 937.360840,698.172363 962.690063,697.982361 
	C967.064209,697.949524 968.357544,699.759338 969.028625,703.660706 
	C979.860291,766.633423 990.808411,829.586243 1001.716248,892.545898 
	C1005.664734,915.336548 1009.576294,938.133545 1013.608887,961.346924 
M916.842224,858.112488 
	C909.986877,900.510925 903.131470,942.909363 896.268433,985.354858 
	C914.197754,985.354858 932.042603,985.354858 950.288635,985.354858 
	C941.725830,926.763184 933.229736,868.627686 924.733582,810.492126 
	C924.398254,810.533142 924.062988,810.574158 923.727661,810.615112 
	C921.467529,826.154358 919.207397,841.693604 916.842224,858.112488 
z"/>
<path fill="#FEFEFE" opacity="1.000000" stroke="none" 
	d="
M1047.805176,464.805542 
	C1041.666138,470.943604 1035.883545,476.945343 1029.806396,482.632507 
	C1028.465088,483.887726 1025.680908,484.992340 1024.287720,484.414520 
	C1022.861755,483.823090 1021.565857,481.096436 1021.527649,479.276794 
	C1021.282837,467.622650 1021.281738,455.958923 1021.473755,444.302887 
	C1021.527832,441.022675 1020.676147,439.322693 1017.433899,438.071625 
	C981.662598,424.269012 959.314209,389.247375 962.574341,351.629486 
	C966.161926,310.231995 995.073486,279.046539 1034.778809,272.297791 
	C1039.677002,271.465210 1044.720215,271.193512 1049.698486,271.171844 
	C1074.848633,271.062256 1099.999634,271.112701 1125.150269,271.123413 
	C1170.304688,271.142670 1206.343262,302.333282 1212.724854,346.903564 
	C1219.206421,392.172058 1184.866089,437.974304 1139.489258,442.778992 
	C1120.203613,444.821014 1100.571533,444.262421 1081.123047,443.795624 
	C1072.055542,443.577972 1065.218628,445.555756 1059.616699,452.820312 
	C1056.287964,457.136963 1051.943604,460.670410 1047.805176,464.805542 
M1123.140015,393.207642 
	C1142.054443,394.432648 1156.847046,384.073669 1161.260010,366.512604 
	C1165.413330,349.984802 1157.235474,332.925629 1141.771606,325.859314 
	C1126.795044,319.015686 1108.198364,323.565674 1099.863403,335.482483 
	C1103.387329,339.384003 1106.799683,343.161957 1110.247192,346.978851 
	C1111.537231,345.747101 1112.593384,344.683350 1113.707520,343.683929 
	C1120.856689,337.270538 1131.036743,336.927856 1138.955688,342.817291 
	C1145.843628,347.939911 1148.270752,357.602509 1144.715454,365.747955 
	C1140.867188,374.565033 1131.982422,379.419861 1122.638428,376.759308 
	C1118.535645,375.591125 1114.467285,372.914490 1111.348877,369.917908 
	C1098.374268,357.450317 1086.002441,344.352570 1072.960815,331.958099 
	C1059.269409,318.946045 1037.560425,319.573425 1024.156616,332.781006 
	C1010.823853,345.918610 1010.142273,367.600372 1022.619934,381.669891 
	C1037.000610,397.885223 1064.999756,397.143066 1076.129272,380.366272 
	C1072.643921,376.780792 1069.178589,373.215912 1065.570679,369.504425 
	C1064.094727,370.811157 1062.786011,372.056976 1061.388062,373.192871 
	C1054.433594,378.843597 1044.324219,378.809692 1036.869629,373.143860 
	C1030.072876,367.977966 1027.753906,358.252258 1031.384766,350.140564 
	C1037.117188,337.333954 1052.911011,334.581604 1063.439941,344.839417 
	C1076.091431,357.165070 1088.474976,369.765961 1100.953125,382.269012 
	C1106.894531,388.222198 1113.807861,392.216431 1123.140015,393.207642 
z"/>
<path fill="#FEFEFE" opacity="1.000000" stroke="none" 
	d="
M831.539551,332.345306 
	C835.483398,331.559448 839.074280,330.424347 842.669983,330.409149 
	C875.335876,330.271057 908.002686,330.326141 940.669189,330.339294 
	C941.641785,330.339691 942.614380,330.499969 943.057861,330.539062 
	C942.059753,342.261047 941.076599,353.807098 940.044800,365.924744 
	C911.090271,365.924744 881.372620,365.924744 851.234558,365.924744 
	C851.234558,424.444489 851.234558,482.455292 851.234558,540.806274 
	C881.445984,540.806274 911.562500,540.806274 941.580078,540.806274 
	C944.645996,551.479004 946.090942,552.554077 957.051392,552.555420 
	C971.384644,552.557251 985.718140,552.596375 1000.051147,552.537598 
	C1008.483582,552.502991 1011.263611,549.983826 1012.566528,541.152344 
	C1042.754395,541.152344 1073.013550,541.152344 1103.810669,541.152344 
	C1103.810669,516.003113 1103.810669,491.284668 1103.810669,465.964783 
	C1116.079590,465.964783 1127.818115,465.964783 1140.120605,465.964783 
	C1140.120605,490.273438 1140.120605,515.014648 1140.120605,540.302246 
	C1148.569214,540.302246 1156.483765,540.302246 1164.241577,540.302246 
	C1164.241577,548.599792 1165.222778,556.496216 1164.026489,564.047668 
	C1161.881958,577.585144 1150.235840,586.851135 1136.507690,587.007507 
	C1120.176636,587.193604 1103.841919,587.078308 1087.508789,587.078857 
	C998.675842,587.081726 909.842834,587.092468 821.009888,587.068359 
	C805.104858,587.064026 792.721375,577.482361 791.174438,563.317383 
	C790.385437,556.092529 791.036194,548.710510 791.036194,541.049683 
	C798.842285,541.049683 806.615906,541.049683 815.193604,541.049683 
	C815.193604,538.807495 815.193542,536.901978 815.193542,534.996460 
	C815.193909,476.330048 815.211670,417.663605 815.180298,358.997192 
	C815.173828,346.886536 819.953308,337.776794 831.539551,332.345306 
z"/>
<path fill="#FEFEFE" opacity="1.000000" stroke="none" 
	d="
M1336.277710,1026.999756 
	C1336.484131,919.203186 1336.689697,811.906555 1336.895874,704.609985 
	C1336.908325,698.080933 1336.910400,698.075378 1343.458740,698.074280 
	C1361.952515,698.071167 1380.447266,698.180603 1398.939087,697.989990 
	C1403.054321,697.947632 1404.353271,699.136902 1404.357300,703.335999 
	C1404.480591,830.292603 1404.702393,957.249207 1405.021973,1084.205444 
	C1405.033081,1088.620728 1403.617065,1089.947632 1399.273560,1089.904297 
	C1380.281982,1089.714233 1361.285767,1089.687134 1342.294922,1089.915405 
	C1337.357544,1089.974609 1336.040649,1088.182861 1336.101807,1083.480591 
	C1336.344116,1064.822632 1336.247681,1046.160522 1336.277710,1026.999756 
z"/>
<path fill="#1E3770" opacity="1.000000" stroke="none" 
	d="
M1223.844849,920.000122 
	C1223.842896,937.161255 1223.999756,953.824280 1223.801514,970.483093 
	C1223.509888,994.989075 1207.486206,1015.268311 1184.151489,1019.369141 
	C1174.578125,1021.051697 1164.567993,1020.295044 1154.753906,1020.544861 
	C1149.800537,1020.670898 1144.841187,1020.566895 1139.796265,1020.566895 
	C1139.796265,935.452637 1139.796265,850.896179 1139.796265,766.004822 
	C1156.659424,766.004822 1173.211060,764.543518 1189.388916,766.378296 
	C1209.177246,768.622498 1223.767578,788.737244 1223.819702,810.535706 
	C1223.906738,846.856995 1223.844360,883.178589 1223.844849,920.000122 
z"/>
<path fill="#203971" opacity="1.000000" stroke="none" 
	d="
M692.064575,861.829224 
	C698.104492,903.221313 704.103516,944.172974 710.152832,985.468140 
	C692.012817,985.468140 674.300537,985.468140 656.267029,985.468140 
	C665.575684,926.781189 674.835083,868.405457 684.239746,809.113403 
	C686.902588,826.996338 689.463135,844.192505 692.064575,861.829224 
z"/>
<path fill="#213971" opacity="1.000000" stroke="none" 
	d="
M916.894775,857.672607 
	C919.207397,841.693604 921.467529,826.154358 923.727661,810.615112 
	C924.062988,810.574158 924.398254,810.533142 924.733582,810.492126 
	C933.229736,868.627686 941.725830,926.763184 950.288635,985.354858 
	C932.042603,985.354858 914.197754,985.354858 896.268433,985.354858 
	C903.131470,942.909363 909.986877,900.510925 916.894775,857.672607 
z"/>
<path fill="#213A72" opacity="1.000000" stroke="none" 
	d="
M1122.721680,393.164795 
	C1113.807861,392.216431 1106.894531,388.222198 1100.953125,382.269012 
	C1088.474976,369.765961 1076.091431,357.165070 1063.439941,344.839417 
	C1052.911011,334.581604 1037.117188,337.333954 1031.384766,350.140564 
	C1027.753906,358.252258 1030.072876,367.977966 1036.869629,373.143860 
	C1044.324219,378.809692 1054.433594,378.843597 1061.388062,373.192871 
	C1062.786011,372.056976 1064.094727,370.811157 1065.570679,369.504425 
	C1069.178589,373.215912 1072.643921,376.780792 1076.129272,380.366272 
	C1064.999756,397.143066 1037.000610,397.885223 1022.619934,381.669891 
	C1010.142273,367.600372 1010.823853,345.918610 1024.156616,332.781006 
	C1037.560425,319.573425 1059.269409,318.946045 1072.960815,331.958099 
	C1086.002441,344.352570 1098.374268,357.450317 1111.348877,369.917908 
	C1114.467285,372.914490 1118.535645,375.591125 1122.638428,376.759308 
	C1131.982422,379.419861 1140.867188,374.565033 1144.715454,365.747955 
	C1148.270752,357.602509 1145.843628,347.939911 1138.955688,342.817291 
	C1131.036743,336.927856 1120.856689,337.270538 1113.707520,343.683929 
	C1112.593384,344.683350 1111.537231,345.747101 1110.247192,346.978851 
	C1106.799683,343.161957 1103.387329,339.384003 1099.863403,335.482483 
	C1108.198364,323.565674 1126.795044,319.015686 1141.771606,325.859314 
	C1157.235474,332.925629 1165.413330,349.984802 1161.260010,366.512604 
	C1156.847046,384.073669 1142.054443,394.432648 1122.721680,393.164795 
z"/>
</svg>